<?xml version="1.0" encoding="UTF-8" standalone="no"?>
<!DOCTYPE svg PUBLIC "-//W3C//DTD SVG 1.1//EN" "http://www.w3.org/Graphics/SVG/1.1/DTD/svg11.dtd">
<svg width="100%" height="100%" viewBox="0 0 2923 542" version="1.1" xmlns="http://www.w3.org/2000/svg" xmlns:xlink="http://www.w3.org/1999/xlink" xml:space="preserve" xmlns:serif="http://www.serif.com/" style="fill-rule:evenodd;clip-rule:evenodd;stroke-linejoin:round;stroke-miterlimit:2;">
    <g transform="matrix(1,0,0,1,-25093.6,-5062.2)">
        <g transform="matrix(3.38502,0,0,3.38502,-45445.1,-1942.83)">
            <g transform="matrix(0.215242,0,0,0.215242,20507.6,1527.95)">
                <path d="M1689.6,2515.63L1537.3,2667.93L1537.3,2697.4L1689.6,2545.1L1689.6,2630.77L1537.3,2783.07L1537.3,2812.53L1689.6,2660.24L1689.6,2745.91L1537.3,2898.21L1537.3,2927.67L1689.6,2775.38L1689.6,2861.05L1537.3,3013.35L1537.3,3042.81L1689.6,2890.51L1689.6,2976.19L1537.3,3128.49L1537.3,3157.95L1689.6,3005.65L1689.6,3091.65L1537.3,3243.95L1537.3,3258.98L1551.73,3258.98L1704.08,3106.63L1790.14,3106.63L1637.8,3258.98L1667.26,3258.98L1819.55,3106.69L1819.49,3106.63L1905.4,3106.63L1753.05,3258.98L1782.52,3258.98L1934.8,3106.69L1934.74,3106.63L2020.66,3106.63L1868.31,3258.98L1897.77,3258.98L2050.06,3106.69L2050,3106.63L2135.91,3106.63L1983.57,3258.98L2013.03,3258.98L2165.32,3106.69L2165.26,3106.63L2251.17,3106.63L2098.82,3258.98L2128.28,3258.98L2280.57,3106.69L2280.51,3106.63L2280.6,3106.63L2280.6,2515.63L1689.6,2515.63L1689.6,2515.63Z" style="fill:white;"/>
            </g>
            <g transform="matrix(0.730937,0,0,0.730937,23239.9,860.176)">
                <g transform="matrix(182.772,0,0,182.772,-2104.39,1794.73)">
                </g>
                <text x="-2995.77px" y="1794.73px" style="font-family:'Sohne-Halbfett', 'Söhne', sans-serif;font-weight:600;font-size:182.772px;fill:white;">gr<tspan x="-2816.65px -2714.85px -2570.09px -2507.95px -2408.7px -2298.86px -2200.89px " y="1794.73px 1794.73px 1794.73px 1794.73px 1794.73px 1794.73px 1794.73px ">owthbox</tspan></text>
            </g>
        </g>
    </g>
</svg>
